<svg width="46" height="76" viewBox="0 0 46 76" fill="none" xmlns="http://www.w3.org/2000/svg">
<path d="M5.2 47.4C5.2 55.6 6.86667 61.5667 10.2 65.3C13.5333 68.9667 17.7333 70.8 22.8 70.8C27.9333 70.8 32.1333 69 35.4 65.4C38.6667 61.8 40.3 57.5 40.3 52.5C40.3 47.5 38.9333 43.4333 36.2 40.3C33.4667 37.1 29.8 35.5 25.2 35.5C20.6667 35.5 15.9333 36.7 11 39.1L9.7 36C15.4333 33 21.1667 31.5 26.9 31.5C32.7 31.5 37.2333 33.4667 40.5 37.4C43.7667 41.2667 45.4 46.2667 45.4 52.4C45.4 58.4667 43.2333 63.8 38.9 68.4C34.5667 72.9333 29.3 75.2 23.1 75.2C16.8333 75.2 11.5667 73.2667 7.3 69.4C2.43333 65.0667 5.66244e-07 57.7333 5.66244e-07 47.4C5.66244e-07 42.4667 0.7 37.7667 2.1 33.3C3.5 28.7667 5.16667 24.9667 7.1 21.9C9.03333 18.7667 11.5 15.7 14.5 12.7C17.5667 9.63333 20.2 7.26666 22.4 5.6C24.6667 3.86666 27.3 2 30.3 -9.53674e-07L32.4 3.2C28.9333 5.46666 25.8667 7.76666 23.2 10.1C20.5333 12.3667 17.7 15.3333 14.7 19C8.36667 26.6667 5.2 36.1333 5.2 47.4Z" fill="black"/>
</svg>
