<svg width="46" height="76" viewBox="0 0 46 76" fill="none" xmlns="http://www.w3.org/2000/svg">
<path d="M40.2 28.1C40.2 19.9 38.5333 13.9667 35.2 10.3C31.8667 6.56666 27.6333 4.7 22.5 4.7C17.4333 4.7 13.2667 6.5 10 10.1C6.73333 13.7 5.1 18 5.1 23C5.1 28 6.46667 32.1667 9.2 35.5C11.9333 38.7667 15.5667 40.4 20.1 40.4C24.7 40.4 29.4667 39.2 34.4 36.8L35.7 39.9C29.9667 42.9 24.2 44.4 18.4 44.4C12.6667 44.4 8.16667 42.4 4.9 38.4C1.63333 34.4 2.98023e-08 29.3333 2.98023e-08 23.2C2.98023e-08 17.0667 2.16667 11.7333 6.5 7.19999C10.8333 2.59999 16.1 0.299994 22.3 0.299994C28.5667 0.299994 33.8333 2.2 38.1 6C42.9667 10.4 45.4 17.7667 45.4 28.1C45.4 33.0333 44.7 37.7667 43.3 42.3C41.9 46.7667 40.2333 50.5667 38.3 53.7C36.3667 56.7667 33.8667 59.8333 30.8 62.9C27.8 65.9 25.1667 68.2667 22.9 70C20.7 71.6667 18.1 73.5 15.1 75.5L13 72.3C16.4667 70.0333 19.5333 67.7667 22.2 65.5C24.8667 63.1667 27.7 60.2 30.7 56.6C37.0333 48.8667 40.2 39.3667 40.2 28.1Z" fill="black"/>
</svg>
