<svg width="51" height="73" viewBox="0 0 51 73" fill="none" xmlns="http://www.w3.org/2000/svg">
<path d="M43.2 0.499997L12.8 35.1C16.8667 39.9667 21.5333 45.4 26.8 51.4C32.1333 57.4 35.5667 61.1 37.1 62.5C38.7 63.9 39.9333 64.9667 40.8 65.7C41.7333 66.3667 43.1333 67.1333 45 68C46.8667 68.8 48.8667 69.3333 51 69.6L50.9 72.8C46.9 72.7333 43.6 72.1333 41 71C38.4 69.8 36.1333 68.2667 34.2 66.4C32.2667 64.4667 28.0333 59.8 21.5 52.4C15.0333 44.9333 10.1667 39.2333 6.9 35.3L37.6 0.499997H43.2ZM5 0.499997V72H0.2V0.499997H5Z" fill="black"/>
</svg>
